<mxfile host="www.draw.io" modified="2019-12-15T15:13:44.613Z" agent="Mozilla/5.0 (Windows NT 10.0; Win64; x64; rv:71.0) Gecko/20100101 Firefox/71.0" etag="wl5WxyDRJ6SNhL-PThuf" version="12.4.2" type="github" pages="1">
  <diagram id="A9EIPaXhZBOaRkQXAFX3" name="Page-1">
    <mxGraphModel dx="1182" dy="1930" grid="1" gridSize="10" guides="1" tooltips="1" connect="1" arrows="1" fold="1" page="1" pageScale="1" pageWidth="827" pageHeight="1169" math="0" shadow="0">
      <root>
        <mxCell id="0"/>
        <mxCell id="1" parent="0"/>
        <mxCell id="ZOOxbcdwdiSvAmz2-Qhy-1" value="" style="shape=folder;fontStyle=1;spacingTop=10;tabWidth=132;tabHeight=22;tabPosition=left;html=1;" vertex="1" parent="1">
          <mxGeometry x="707" y="80" width="593" height="220" as="geometry"/>
        </mxCell>
        <mxCell id="ZOOxbcdwdiSvAmz2-Qhy-2" value="Views" style="text;align=center;fontStyle=1;verticalAlign=middle;spacingLeft=3;spacingRight=3;strokeColor=none;rotatable=0;points=[[0,0.5],[1,0.5]];portConstraint=eastwest;" vertex="1" parent="1">
          <mxGeometry x="707" y="80" width="120" height="20" as="geometry"/>
        </mxCell>
        <mxCell id="ZOOxbcdwdiSvAmz2-Qhy-4" value="" style="shape=folder;fontStyle=1;spacingTop=10;tabWidth=150;tabHeight=27;tabPosition=left;html=1;" vertex="1" parent="1">
          <mxGeometry x="190" y="40" width="460" height="270" as="geometry"/>
        </mxCell>
        <mxCell id="ZOOxbcdwdiSvAmz2-Qhy-5" value="ViewModels" style="text;align=center;fontStyle=1;verticalAlign=middle;spacingLeft=3;spacingRight=3;strokeColor=none;rotatable=0;points=[[0,0.5],[1,0.5]];portConstraint=eastwest;" vertex="1" parent="1">
          <mxGeometry x="200" y="40" width="130" height="30" as="geometry"/>
        </mxCell>
        <mxCell id="ZOOxbcdwdiSvAmz2-Qhy-6" value="&lt;p style=&quot;margin: 0px ; margin-top: 4px ; text-align: center&quot;&gt;&lt;b&gt;DataOverviewViewModel&lt;/b&gt;&lt;br&gt;&lt;/p&gt;&lt;hr size=&quot;1&quot;&gt;&lt;p style=&quot;margin: 0px ; margin-left: 4px&quot;&gt;+ trainingsData: ObservableCollection&amp;lt;DBEntry&amp;gt;&lt;/p&gt;&lt;hr size=&quot;1&quot;&gt;&lt;p style=&quot;margin: 0px ; margin-left: 4px&quot;&gt;+ &amp;lt;&amp;lt;create&amp;gt;&amp;gt; DataOverviewViewModel()&lt;br&gt;&lt;/p&gt;&lt;p style=&quot;margin: 0px ; margin-left: 4px&quot;&gt;- init(): Task&amp;lt;void&amp;gt;&lt;br&gt;&lt;/p&gt;" style="verticalAlign=top;align=left;overflow=fill;fontSize=12;fontFamily=Helvetica;html=1;" vertex="1" parent="1">
          <mxGeometry x="300" y="145" width="300" height="90" as="geometry"/>
        </mxCell>
        <mxCell id="ZOOxbcdwdiSvAmz2-Qhy-7" value="DataOverviewView" style="swimlane;fontStyle=1;align=center;verticalAlign=top;childLayout=stackLayout;horizontal=1;startSize=26;horizontalStack=0;resizeParent=1;resizeParentMax=0;resizeLast=0;collapsible=1;marginBottom=0;" vertex="1" parent="1">
          <mxGeometry x="910" y="138" width="260" height="130" as="geometry"/>
        </mxCell>
        <mxCell id="ZOOxbcdwdiSvAmz2-Qhy-8" value="+ Heading: Label&#xa;+ Content: ListView&#xa;+ BindingContext: DataOverviewViewModel&#xa;&#xa;" style="text;strokeColor=none;fillColor=none;align=left;verticalAlign=top;spacingLeft=4;spacingRight=4;overflow=hidden;rotatable=0;points=[[0,0.5],[1,0.5]];portConstraint=eastwest;" vertex="1" parent="ZOOxbcdwdiSvAmz2-Qhy-7">
          <mxGeometry y="26" width="260" height="44" as="geometry"/>
        </mxCell>
        <mxCell id="ZOOxbcdwdiSvAmz2-Qhy-9" value="" style="line;strokeWidth=1;fillColor=none;align=left;verticalAlign=middle;spacingTop=-1;spacingLeft=3;spacingRight=3;rotatable=0;labelPosition=right;points=[];portConstraint=eastwest;" vertex="1" parent="ZOOxbcdwdiSvAmz2-Qhy-7">
          <mxGeometry y="70" width="260" height="8" as="geometry"/>
        </mxCell>
        <mxCell id="ZOOxbcdwdiSvAmz2-Qhy-10" value="+ &lt;&lt;create&gt;&gt;DataOverviewView()&#xa;- InitializeComponent(): void&#xa;" style="text;strokeColor=none;fillColor=none;align=left;verticalAlign=top;spacingLeft=4;spacingRight=4;overflow=hidden;rotatable=0;points=[[0,0.5],[1,0.5]];portConstraint=eastwest;" vertex="1" parent="ZOOxbcdwdiSvAmz2-Qhy-7">
          <mxGeometry y="78" width="260" height="52" as="geometry"/>
        </mxCell>
        <mxCell id="ZOOxbcdwdiSvAmz2-Qhy-11" value="&lt;b&gt;ContentPage&lt;/b&gt;" style="html=1;" vertex="1" parent="1">
          <mxGeometry x="985" y="-60" width="110" height="50" as="geometry"/>
        </mxCell>
        <mxCell id="ZOOxbcdwdiSvAmz2-Qhy-12" value="Extends" style="endArrow=block;endSize=16;endFill=0;html=1;exitX=0.5;exitY=0;exitDx=0;exitDy=0;entryX=0.5;entryY=1;entryDx=0;entryDy=0;" edge="1" parent="1" source="ZOOxbcdwdiSvAmz2-Qhy-7" target="ZOOxbcdwdiSvAmz2-Qhy-11">
          <mxGeometry width="160" relative="1" as="geometry">
            <mxPoint x="50" y="650" as="sourcePoint"/>
            <mxPoint x="210" y="650" as="targetPoint"/>
          </mxGeometry>
        </mxCell>
        <mxCell id="ZOOxbcdwdiSvAmz2-Qhy-13" value="ItemsSource" style="html=1;verticalAlign=bottom;endArrow=block;exitX=0.013;exitY=0.659;exitDx=0;exitDy=0;exitPerimeter=0;entryX=1;entryY=0.5;entryDx=0;entryDy=0;" edge="1" parent="1" source="ZOOxbcdwdiSvAmz2-Qhy-8" target="ZOOxbcdwdiSvAmz2-Qhy-6">
          <mxGeometry x="-0.6157" y="-4" width="80" relative="1" as="geometry">
            <mxPoint x="50" y="650" as="sourcePoint"/>
            <mxPoint x="590" y="225" as="targetPoint"/>
            <mxPoint as="offset"/>
          </mxGeometry>
        </mxCell>
        <mxCell id="ZOOxbcdwdiSvAmz2-Qhy-17" value="Use" style="endArrow=open;endSize=12;dashed=1;html=1;exitX=0;exitY=0;exitDx=0;exitDy=0;entryX=1;entryY=0;entryDx=0;entryDy=0;" edge="1" parent="1" source="ZOOxbcdwdiSvAmz2-Qhy-7" target="ZOOxbcdwdiSvAmz2-Qhy-6">
          <mxGeometry width="160" relative="1" as="geometry">
            <mxPoint x="190" y="330" as="sourcePoint"/>
            <mxPoint x="350" y="330" as="targetPoint"/>
          </mxGeometry>
        </mxCell>
      </root>
    </mxGraphModel>
  </diagram>
</mxfile>
